<?xml version="1.0" encoding="UTF-8" standalone="no"?>
<!-- Created with Inkscape (http://www.inkscape.org/) -->

<svg
   xmlns:dc="http://purl.org/dc/elements/1.1/"
   xmlns:cc="http://creativecommons.org/ns#"
   xmlns:rdf="http://www.w3.org/1999/02/22-rdf-syntax-ns#"
   xmlns:svg="http://www.w3.org/2000/svg"
   xmlns="http://www.w3.org/2000/svg"
   xmlns:xlink="http://www.w3.org/1999/xlink"
   xmlns:sodipodi="http://sodipodi.sourceforge.net/DTD/sodipodi-0.dtd"
   xmlns:inkscape="http://www.inkscape.org/namespaces/inkscape"
   width="2090.7461"
   height="484.83249"
   id="svg3395"
   sodipodi:version="0.32"
   inkscape:version="0.48.3.1 r9886"
   sodipodi:docname="georepublic.svg"
   inkscape:output_extension="org.inkscape.output.svg.inkscape"
   version="1.1">
  <defs
     id="defs3397">
    <linearGradient
       id="linearGradient3757">
      <stop
         style="stop-color:#624c34;stop-opacity:1;"
         offset="0"
         id="stop3759" />
      <stop
         style="stop-color:#161616;stop-opacity:1;"
         offset="1"
         id="stop3761" />
    </linearGradient>
    <inkscape:perspective
       sodipodi:type="inkscape:persp3d"
       inkscape:vp_x="0 : 526.18109 : 1"
       inkscape:vp_y="0 : 1000 : 0"
       inkscape:vp_z="744.09448 : 526.18109 : 1"
       inkscape:persp3d-origin="372.04724 : 350.78739 : 1"
       id="perspective3403" />
    <inkscape:perspective
       id="perspective2853"
       inkscape:persp3d-origin="0.5 : 0.33333333 : 1"
       inkscape:vp_z="1 : 0.5 : 1"
       inkscape:vp_y="0 : 1000 : 0"
       inkscape:vp_x="0 : 0.5 : 1"
       sodipodi:type="inkscape:persp3d" />
    <inkscape:perspective
       id="perspective3647"
       inkscape:persp3d-origin="0.5 : 0.33333333 : 1"
       inkscape:vp_z="1 : 0.5 : 1"
       inkscape:vp_y="0 : 1000 : 0"
       inkscape:vp_x="0 : 0.5 : 1"
       sodipodi:type="inkscape:persp3d" />
    <inkscape:perspective
       id="perspective3708"
       inkscape:persp3d-origin="0.5 : 0.33333333 : 1"
       inkscape:vp_z="1 : 0.5 : 1"
       inkscape:vp_y="0 : 1000 : 0"
       inkscape:vp_x="0 : 0.5 : 1"
       sodipodi:type="inkscape:persp3d" />
    <inkscape:perspective
       id="perspective2846"
       inkscape:persp3d-origin="0.5 : 0.33333333 : 1"
       inkscape:vp_z="1 : 0.5 : 1"
       inkscape:vp_y="0 : 1000 : 0"
       inkscape:vp_x="0 : 0.5 : 1"
       sodipodi:type="inkscape:persp3d" />
    <inkscape:perspective
       id="perspective3838"
       inkscape:persp3d-origin="0.5 : 0.33333333 : 1"
       inkscape:vp_z="1 : 0.5 : 1"
       inkscape:vp_y="0 : 1000 : 0"
       inkscape:vp_x="0 : 0.5 : 1"
       sodipodi:type="inkscape:persp3d" />
    <radialGradient
       inkscape:collect="always"
       xlink:href="#linearGradient3757"
       id="radialGradient3769"
       cx="-478.78687"
       cy="-1078.8002"
       fx="-478.78687"
       fy="-1078.8002"
       r="1045.373"
       gradientTransform="matrix(1,0,0,0.23189449,0,-828.63234)"
       gradientUnits="userSpaceOnUse" />
  </defs>
  <sodipodi:namedview
     id="base"
     pagecolor="#ffffff"
     bordercolor="#666666"
     borderopacity="1.0"
     gridtolerance="10000"
     guidetolerance="10"
     objecttolerance="10"
     inkscape:pageopacity="0.0"
     inkscape:pageshadow="2"
     inkscape:zoom="0.50315795"
     inkscape:cx="1153.2148"
     inkscape:cy="-12.555799"
     inkscape:document-units="px"
     inkscape:current-layer="layer1"
     showgrid="false"
     inkscape:window-width="1920"
     inkscape:window-height="1028"
     inkscape:window-x="0"
     inkscape:window-y="24"
     showguides="true"
     inkscape:guide-bbox="true"
     inkscape:window-maximized="1" />
  <metadata
     id="metadata3400">
    <rdf:RDF>
      <cc:Work
         rdf:about="">
        <dc:format>image/svg+xml</dc:format>
        <dc:type
           rdf:resource="http://purl.org/dc/dcmitype/StillImage" />
        <dc:title></dc:title>
      </cc:Work>
    </rdf:RDF>
  </metadata>
  <g
     inkscape:label="Layer 1"
     inkscape:groupmode="layer"
     id="layer1"
     transform="translate(1524.1599,1321.2164)">
    <path
       id="path3590"
       style="fill:url(#radialGradient3769);fill-opacity:1;fill-rule:nonzero;stroke:none;opacity:1;"
       d="m -125.35845,-1321.2133 -76.80998,236.7407 c -0.70906,2.2007 -1.41857,4.4745 -2.20074,7.039 -0.36327,2.1281 -0.6364,4.5472 -1.00013,7.0937 -0.34533,2.4918 -0.78216,4.9832 -1.12794,7.5297 0,2.1281 0,4.3472 0,6.548 -0.14352,4.7472 0.27357,9.3671 1.00057,13.9143 l -21.46243,0 c -2.56445,0 -4.32881,-0.2736 -5.40204,-0.9826 -0.70951,-1.1455 -1.14589,-2.3461 -1.14589,-3.7646 0,-0.7822 0,-1.7097 0,-2.7829 0.36327,-1.0549 0.78216,-2.1281 1.14589,-3.2013 l 35.10366,-110.7494 -55.71127,0 -30.75646,94.0526 c 0,0.3633 -0.21976,0.6548 -0.58214,1.0001 0,0 0,0.2198 0,0.5638 -1.83701,5.402 -5.38366,10.6588 -10.78571,15.715 -5.40205,4.6746 -11.16782,7.6755 -17.27893,9.1667 -1.05529,0.3453 -2.25545,0.6368 -3.32868,0.9826 -1.07323,0 -2.12808,0 -3.20131,0 -2.4918,0 -4.25571,-0.2736 -5.4016,-0.9826 -0.70951,-1.1455 -1.12795,-2.3461 -1.12795,-3.7646 0,-0.7822 0,-1.7097 0,-2.7829 0.34534,-1.0549 0.78217,-2.1281 1.12795,-3.2013 l 35.59476,-110.7494 -56.12971,0 -30.26537,94.0526 c -0.34534,1.7823 -0.85527,3.565 -1.56433,5.3289 -0.34534,1.8554 -0.56375,3.6377 -0.56375,5.4021 -0.34534,1.7823 -0.78216,3.565 -1.12795,5.402 0,1.7823 0,3.5467 0,5.329 -0.0718,2.0554 0.0718,4.0561 0.20182,5.9662 l -22.09883,0 c 5.05626,-7.8759 9.03973,-16.1877 11.87687,-24.7911 3.25603,-9.0213 4.96567,-18.0431 4.96567,-26.9914 0,-15.1329 -4.40192,-28.6472 -13.05954,-40.5788 -8.33023,-11.859 -19.55232,-20.0981 -33.97572,-24.7907 -3.96509,-1.4185 -7.94856,-2.4191 -11.93159,-2.7828 -3.98348,-0.7096 -7.94857,-1.1275 -11.85894,-1.1275 -15.49663,0 -30.48423,3.983 -44.90763,11.9315 -14.05967,7.5302 -26.79137,16.9879 -38.28659,28.1373 -0.36327,-5.7474 -0.92747,-11.0036 -1.63698,-15.6966 -0.70906,-5.0563 -1.63698,-9.5309 -2.78287,-13.4955 -0.34534,-2.1465 -0.78217,-4.1288 -1.1275,-5.9662 -0.36328,-1.7823 -0.63641,-3.5646 -1.00058,-5.329 0,0 0,-0.2197 0,-0.5821 0,-0.7822 -0.29152,-1.9823 -1.05485,-3.8377 l -52.50996,11.3678 c 0.34534,0.3633 0.56375,0.8548 0.56375,1.5643 0.36328,0.3633 0.78217,1.5639 1.14589,3.3467 0.34534,1.0548 0.4911,2.346 0.4911,3.7646 0.34533,1.4916 0.78216,2.9102 1.1275,4.3292 1.07323,4.3288 1.92805,9.3851 2.63756,15.1325 0.70951,5.402 1.1275,11.4405 1.1275,18.3342 0,9.0214 -0.90909,19.3344 -2.76448,30.9022 -1.70964,10.9494 -4.69254,23.3174 -9.02136,37.1591 l -61.24069,0 c 16.18776,-11.5136 28.9199,-22.5177 37.86815,-32.9576 9.0218,-10.8041 14.9876,-20.6076 17.89784,-29.629 1.41857,-3.6197 2.27339,-6.8206 2.63712,-9.7309 0.7095,-3.2013 1.12794,-6.4026 1.12794,-9.2397 0,-14.7871 -5.74783,-26.2824 -17.26098,-34.5946 -11.58626,-8.2576 -24.71801,-12.4407 -39.50558,-12.4407 -2.54607,0 -4.96522,0.2198 -7.0933,0.5638 -2.14602,0 -4.2741,0.2197 -6.40218,0.5637 -4.69254,0.7095 -9.58555,2.0007 -14.64181,3.7651 -4.69254,1.4369 -9.51245,3.6377 -14.56916,6.5479 -11.85849,5.7474 -23.49946,14.3508 -34.66683,25.8639 -10.8041,11.1495 -19.89855,25.3549 -27.42868,42.6885 -2.54607,6.1111 -5.18318,13.0044 -7.65705,20.6076 -2.21912,7.1844 -3.56503,14.4234 -4.27409,21.6078 0,1.4185 -0.21976,2.9102 -0.5642,4.3288 0,0.7091 0,1.3459 0,2.0554 l -45.47093,0 c -2.12808,0 -3.83772,-0.2736 -4.91095,-0.9826 -0.70951,-1.1455 -1.20016,-2.3461 -1.56433,-3.7646 0,-3.274 1.63698,-7.4754 4.91095,-12.5138 3.27397,-5.402 7.23906,-11.1494 11.85894,-17.261 1.49167,-1.4912 2.85553,-3.0555 4.2741,-4.8378 1.41901,-1.7644 2.91024,-3.4744 4.32926,-4.893 4.69254,-5.4016 9.16666,-10.2399 13.49547,-14.5687 4.32882,-4.3288 7.60278,-7.2575 9.73086,-8.676 l 20.60761,0 0,-53.9833 -106.4932,0 2.69183,-7.1117 -51.36452,-16.6972 -21.02561,65.8606 -1.14588,0 c -6.18422,-13.6413 -15.47825,-24.6454 -28.06464,-32.9577 -12.29576,-8.2576 -26.35544,-12.4406 -42.19737,-12.4406 -26.355,0 -48.818,10.1672 -67.5702,30.3385 -18.6796,19.825 -28.1378,42.488 -28.1378,68.0608 0,9.3851 1.3459,18.1158 3.9835,26.4281 l -60.2585,0 c 16.2061,-11.5136 28.7199,-22.5177 37.7412,-32.9576 9.0214,-10.8041 14.9872,-20.6076 17.8248,-29.629 1.4912,-3.6197 2.4187,-6.8206 2.7644,-9.7309 0.7275,-3.2013 1.0006,-6.4026 1.0006,-9.2397 0,-14.7871 -5.6752,-26.2824 -17.261,-34.5946 -11.5136,-8.2576 -24.718,-12.4407 -39.4324,-12.4407 -2.5645,0 -4.8383,0.2198 -7.0391,0.5638 -2.1281,0 -4.3288,0.2197 -6.4569,0.5637 -4.6925,0.7095 -9.5308,2.0007 -14.5691,3.7651 -4.6926,1.4369 -9.5851,3.6377 -14.6414,6.5479 -11.9316,5.7474 -23.3725,14.3508 -34.5946,25.8639 -10.8041,11.1495 -19.9708,25.3549 -27.5736,42.6885 -2.4738,6.1111 -5.0383,13.0044 -7.5301,20.6076 -2.2007,7.1844 -3.6197,14.4234 -4.3288,21.6078 0,1.4185 -0.1435,2.9102 -0.4911,4.3288 0,1.0728 0,2.1281 0,3.2013 0,4.6925 0.5638,9.3667 1.6186,14.0597 1.0732,4.6925 2.6376,9.0213 4.7656,12.9317 4.6926,8.676 11.2221,15.13291 19.4618,19.46172 8.6755,3.98348 17.8426,5.98419 27.5735,5.98419 l 117.8794,0 11.9316,-35.59521 c 1.7097,2.7649 3.4014,5.3841 5.4747,8.0212 12.277,14.7692 28.3378,23.66319 48.1632,26.50077 1.1459,0 1.9277,0.14352 2.6372,0.4911 1.1279,0 2.128,0 3.2555,0 1.0733,0.36328 2.0012,0.58214 2.7103,0.58214 1.0548,0 2.128,0 3.1829,0 22.3903,0 42.21533,-7.74854 59.54897,-23.24521 17.62472,-15.4782 28.84725,-33.6667 33.53979,-54.5649 l 25.8639,0 10.51302,0.1435 2.05542,-11.5136 c 2.69183,-10.0215 5.11053,-16.8968 12.36798,-24.3722 3.25558,-3.1829 6.67486,-5.3294 10.29461,-6.3842 1.07323,-0.3633 1.98232,-0.5638 2.76448,-0.5638 1.07324,-0.3633 2.07382,-0.5821 3.20132,-0.5821 l 8.53025,0 c -6.82061,9.385 -12.64065,19.607 -17.69736,30.7748 -5.03833,10.7857 -7.67544,22.0262 -7.67544,33.5214 0,2.2187 0,4.3472 0,6.5479 0.36328,2.1281 1.00058,4.2562 1.70964,6.3838 0.36328,2.5649 0.85482,4.9841 1.63698,7.1122 0.70951,2.1276 1.49168,4.3283 2.63757,6.5295 5.38366,10.0946 12.78641,17.6247 22.15355,22.6626 9.73086,5.05626 20.18917,7.54851 31.3386,7.54851 2.56446,0 5.62001,0 9.16711,0 3.98303,0 8.16653,0 12.49534,0 4.34676,0 8.31229,0 11.87688,0 3.96509,0 7.23906,0 9.73086,0 l 8.38495,-26.00961 c 0.0718,0.2197 0.20182,0.4171 0.34533,0.5637 4.69254,8.676 11.16737,15.13292 19.47967,19.46173 8.58497,3.98348 17.67897,5.98418 27.41028,5.98418 l 105.09258,0 -43.97971,135.63108 50.80033,16.7515 45.47137,-141.08783 c 6.11111,-18.33378 14.05968,-35.52206 23.79054,-51.38246 9.7488,-16.1878 19.75234,-30.3927 30.2111,-42.6881 1.05484,-1.0732 2.27339,-2.0733 3.32823,-3.2013 1.07324,-1.4185 1.92806,-2.6918 2.63756,-3.765 9.36669,-9.7309 18.5338,-17.2606 27.55515,-22.6626 9.0218,-5.7658 17.20628,-8.676 24.37268,-8.676 5.03832,0 9.31242,1.2912 12.93217,3.765 3.6193,2.146 5.4016,6.1111 5.4016,11.95 0,10.4399 -4.47412,20.3165 -13.49548,29.6832 -8.67601,9.0218 -18.40687,15.4967 -29.21097,19.4801 -2.47341,0.7091 -5.03787,1.4913 -7.53012,2.2008 -2.54607,0.3453 -5.03788,0.4171 -7.60233,0.4171 l -35.08573,0 0,53.58317 160.56795,0 5.82003,-18.33427 c 6.32953,6.748 14.20544,11.85899 24.00895,15.13296 1.85495,0.34533 3.49194,0.85482 4.91051,1.56433 1.83745,0.41709 3.61975,0.56375 5.40204,0.56375 1.83701,0.41709 3.47445,0.70906 4.89302,1.07323 1.85494,0 3.6193,0 5.40204,0 8.67557,0 17.13317,-1.49167 25.44546,-4.3472 8.58497,-2.91025 16.55148,-6.89327 23.79054,-11.93157 5.76577,5.0383 12.22266,9.02132 19.46172,11.93157 7.54806,2.85553 15.27821,4.3472 23.24472,4.3472 2.83714,0 5.52942,0 8.09388,0 2.83758,0 5.4747,0 8.03916,0 l 11.49521,-34.53987 c 1.00013,1.9276 1.92806,3.983 3.12866,5.8926 7.18434,11.95 18.18801,20.38969 32.97558,25.44596 3.96509,1.05484 7.67544,1.90966 11.29475,2.61917 3.61975,0.70951 7.23905,1.14589 10.85881,1.14589 22.3899,0 42.85175,-8.38495 61.603962,-24.93642 18.697945,-16.5515 31.411704,-34.7399 37.868597,-54.5654 1.073233,-3.6377 2.000708,-7.1843 2.782872,-10.8041 0.709061,-3.6193 1.200156,-7.1843 1.564329,-10.731 l 14.768735,0 -13.150139,40.5057 c -0.345336,1.4186 -0.709509,2.9103 -1.054845,4.3289 -0.363276,1.0727 -0.636854,2.128 -1.000579,3.2013 0,1.4912 -0.219759,2.9098 -0.56375,4.3288 0,1.1454 0,2.346 0,3.8377 0,11.8585 4.037744,22.3172 12.350035,31.3386 8.257575,8.65762 19.1159359,12.93217 32.4844887,12.93217 l 48.0901043,0 7.89385,-24.51847 c 1.982769,4.1109 4.547228,7.9486 7.875911,11.5863 8.239187,8.65762 19.043281,12.93217 32.411839,12.93217 l 48.58119,0 7.47541,-22.80837 c 4.47413,6.948 10.29462,12.34961 17.47896,16.26043 8.65807,4.32882 17.97049,6.54794 28.06508,6.54794 l 344.28912,0 17.84268,-53.58317 -362.1318,0 c -0.36328,0 -0.6548,-0.072 -1.07324,-0.4171 0,-0.3633 0,-0.7822 0,-1.1459 0,-1.128 0.36328,-2.6918 1.07324,-4.8199 0.70906,-2.5645 1.41857,-5.0567 2.20073,-7.5301 0.34534,-0.3633 0.56375,-0.7822 0.56375,-1.1459 0.34534,-0.7822 0.63641,-1.2733 1.00013,-1.637 1.0553,-2.9103 2.05543,-5.1836 2.76494,-6.9659 1.07323,-2.2012 1.56432,-3.4014 1.56432,-3.7651 0.70907,-1.4917 1.49123,-2.9102 2.20074,-4.4019 1.07278,-1.4186 2.12808,-3.1282 3.20131,-4.8926 5.74738,-9.0213 13.42282,-17.2789 22.8079,-24.809 9.29448,-7.6028 19.17065,-11.7859 29.62941,-12.4954 l -2.63757,26.0092 54.00164,0 2.76448,-23.8085 c 0,-0.7095 0,-1.2732 0,-1.6369 0.36328,-0.7095 0.43504,-1.4186 0.43504,-2.2008 0,-0.3453 0,-0.8548 0,-1.5643 0,-0.7095 0,-1.2733 0,-1.637 0,-13.2775 -4.2741,-24.2996 -12.93218,-32.9576 -8.67556,-8.6029 -19.82499,-13.6413 -33.53933,-15.0598 -0.70906,0 -1.41857,0 -2.12808,0 -0.78216,0 -1.2912,-0.2198 -1.63698,-0.5822 -0.70906,0 -1.49123,0 -2.20074,0 -0.36327,0 -0.85482,0 -1.56433,0 -22.02618,0 -42.92441,7.7486 -62.73191,23.2448 -19.47966,15.4786 -33.97572,32.6123 -43.70658,51.3645 0,0.3633 -0.20182,0.6364 -0.5642,1.0732 0,0 0,0.2018 0,0.5638 -3.6193,7.5301 -6.89327,15.5509 -9.73086,24.2269 -2.56446,8.6576 -3.76461,17.552 -3.76461,26.5734 0,0.1435 0,0.2736 0,0.4171 l -35.17677,0 38.94138,-121.4808 -56.766116,0 -36.740647,115.0965 c -0.345337,1.4186 -0.709061,2.9103 -1.054846,4.3289 -0.219759,0.709 -0.435034,1.3459 -0.654793,2.0554 l -40.487323,0 90.723895,-278.8654 -56.20237,0 -57.8940679,177.8464 -40.5052621,0 1.00013,-4.3467 -50.800321,-16.1151 -4.201443,14.4781 c -0.782166,2.5644 -1.419016,4.9836 -1.764356,7.1117 -0.36327,2.1281 -0.43503,4.2561 -0.43503,6.4021 0,4.3289 0.50903,8.3123 1.56388,11.9316 1.146335,3.2014 2.346491,6.4569 3.838164,9.7309 0.363276,0.7091 0.563751,1.4186 0.563751,2.1281 0.363276,0.3633 0.654793,0.9275 1.00013,1.637 1.073233,2.4918 2.055424,5.2563 2.782872,8.0938 0.709509,2.5645 0.982191,5.2563 0.982191,8.185 0,1.4185 -0.21976,3.0555 -0.563751,4.8925 0,1.4186 -0.291517,2.9829 -1.000578,4.7652 -0.345336,1.4917 -0.927475,3.1287 -1.636984,4.9657 -0.709061,1.4186 -1.618596,2.7829 -2.69183,4.2014 -4.328815,8.3123 -10.658335,15.9147 -18.897525,22.8084 -8.31229,6.8206 -16.9883,10.1493 -26.00965,10.1493 -4.32882,0 -7.31172,-1.2006 -9.16667,-3.7651 -1.7648,-2.4918 -2.69227,-5.5294 -2.69227,-9.1671 0,-1.0548 0,-2.1281 0,-3.1829 0.34533,-1.0733 0.56375,-2.2191 0.56375,-3.3466 0.36327,-1.0733 0.5642,-1.9281 0.5642,-2.6376 0.36327,-1.0549 0.65479,-2.2007 1.00013,-3.2556 l 82.212021,-253.5105 -56.202371,0 z m -1145.30885,0.5638 c -3.9835,0 -7.9486,0.435 -11.9316,1.1459 -3.5651,0.3453 -7.3301,0.8548 -11.2952,1.637 -11.95,2.4918 -23.5905,6.4569 -35.1763,11.8585 -11.5136,5.402 -22.172,11.1498 -31.9028,17.2609 -0.7091,0.3633 -1.4913,0.9275 -2.2008,1.637 -0.709,0.3633 -1.4185,0.6369 -2.128,1.0006 -7.6028,4.6925 -15.424,10.1489 -23.7359,16.2604 -7.8754,6.1111 -16.0603,12.8591 -24.3726,20.0434 -26.2824,22.3173 -50.655,49.018 -72.9539,79.9929 -22.0262,30.6296 -34.3215,62.0955 -37.2317,94.5074 -0.3633,2.2007 -0.5638,4.1835 -0.5638,5.9658 0,1.7823 0,3.6924 0,5.4747 0,2.2007 0,4.2561 0,6.4569 0,1.7823 0.2018,3.5466 0.5638,5.3294 0,1.8549 0.072,3.8377 0.491,5.9658 0.3633,1.7822 0.7822,3.765 1.1459,5.9657 2.8376,15.1325 9.0945,28.0647 18.8249,38.8688 9.7309,10.87672 22.0262,18.04268 36.7227,21.66243 6.1842,1.78229 11.95,2.92818 17.3337,3.34662 5.7657,0.70951 11.5131,1.00013 17.2789,1.00013 10.7857,0.34534 21.244,-0.70906 31.3206,-3.20086 10.0946,-2.56491 20.0434,-5.74783 29.7743,-9.73086 -10.0946,20.53451 -21.0987,40.70574 -32.9756,60.53118 -11.8589,20.17078 -25.0638,39.43248 -39.4872,57.83935 l 42.2701,32.32079 c 29.1926,-37.08643 53.8559,-76.80997 74.0271,-119.37066 20.5345,-42.47009 39.014,-85.54072 55.6386,-129.15622 l -50.2365,-18.898 c -1.4917,3.983 -3.1287,8.0212 -4.9657,12.368 -1.437,3.9651 -2.7829,7.9485 -4.2015,11.9316 -0.7095,0.3453 -1.4916,0.8548 -2.2007,1.5643 -0.3453,0.3453 -0.7822,0.9095 -1.1279,1.637 -14.0777,12.2043 -29.3559,23.6448 -45.9074,34.1031 -16.2061,10.4403 -33.6671,15.624 -52.4373,15.624 -3.2013,0 -6.6753,-0.2198 -10.2946,-0.5638 -3.2013,-0.7095 -6.6753,-1.4185 -10.2403,-2.146 -6.8933,-1.8374 -11.5679,-5.6021 -14.1323,-11.3678 -2.4918,-6.0932 -3.7651,-12.5685 -3.7651,-19.4618 0,-0.7095 0,-1.4185 0,-2.128 0,-0.7095 0,-1.4917 0,-2.2008 0.3633,-3.6197 0.7822,-7.1117 1.1459,-10.7314 0.7095,-3.6193 1.4912,-6.6749 2.2007,-9.1667 6.4569,-25.2275 19.4617,-49.5817 38.9235,-73.0269 19.407,-23.3901 39.9415,-43.7797 61.5313,-61.1129 5.0383,-3.9835 10.0946,-7.7486 15.1329,-11.2952 5.0383,-3.6193 10.1672,-6.8933 15.2055,-9.7309 2.1281,-1.4185 4.9657,-3.2008 8.6034,-5.402 3.6193,-2.1281 7.3117,-4.3288 11.2947,-6.5296 2.9103,-1.7823 6.0385,-3.3466 9.2945,-4.7652 3.2009,-1.8554 6.4749,-3.2739 9.7488,-4.4019 4.6746,-2.1281 9.1671,-3.8377 13.4959,-4.9109 4.3289,-1.0549 8.3123,-1.5639 11.859,-1.5639 2.9102,0 5.402,0.435 7.6028,1.1459 2.128,0.3453 3.9103,1.1275 5.3289,2.6192 0,0 0.2198,0.2197 0.5642,0.5816 0,0 0,0.2019 0,0.5642 0,1.0549 -0.4915,2.6188 -1.5643,4.82 -0.7095,2.146 -1.6917,4.5467 -2.765,7.0385 0,0.3633 -0.2197,0.7095 -0.5637,1.0733 0,0.3453 -0.072,0.8548 -0.435,1.5643 -1.1275,2.2007 -2.2734,4.1835 -3.3283,5.9658 -0.7095,1.837 -1.2916,3.0556 -1.637,3.7651 -6.4752,10.8036 -15.4966,22.5172 -26.9918,35.1583 -11.1678,12.5864 -24.2996,25.4455 -39.4325,38.4503 -1.8554,1.4186 -3.6377,2.7645 -5.402,4.2562 -1.4186,1.4186 -3.1287,2.9102 -4.911,4.3288 l 34.1036,41.0695 c 4.2741,-3.6193 8.4576,-7.1664 12.4406,-10.731 4.3288,-3.6198 8.3849,-7.3122 12.35,-10.8588 14.0781,-12.6591 26.5187,-25.1544 37.3044,-37.7955 10.8041,-12.5864 19.6802,-24.7364 26.5734,-36.2496 3.6198,-5.8205 6.8206,-11.7863 9.7309,-17.8974 2.8555,-6.4569 4.9836,-12.9322 6.4022,-19.4617 0.3453,-2.8555 0.7821,-5.5474 1.1279,-8.1123 0.3633,-2.4734 0.509,-5.0378 0.509,-7.5296 0,-7.9486 -1.6369,-15.4787 -4.8378,-22.6631 -3.274,-7.239 -8.876,-13.7139 -16.8425,-19.4617 -6.4569,-5.0379 -13.496,-8.7487 -21.0261,-10.8767 -7.2391,-2.1281 -14.7687,-3.2009 -22.6626,-3.2009 z m 1416.13506,38.305 c -10.07664,0 -18.6069,3.6919 -25.8639,10.931 -7.1664,7.1843 -10.85881,15.8603 -10.85881,25.9365 0,10.0946 3.69241,18.898 10.85881,26.4281 7.257,7.257 15.78726,10.8041 25.8639,10.8041 10.51258,0 19.18859,-3.5471 26.00921,-10.8041 7.23906,-7.5301 10.87675,-16.3335 10.87675,-26.4281 0,-10.0762 -3.63769,-18.7522 -10.87675,-25.9365 -6.82062,-7.2391 -15.49663,-10.931 -26.00921,-10.931 z m -1302.03906,163.7688 c -3.2556,5.82 -9.4398,12.9317 -18.4612,21.1713 -8.6033,7.9482 -21.1713,16.7695 -37.7228,26.4277 0,-0.3633 0,-0.5638 0,-0.5638 0.3453,-0.3632 0.4171,-0.6368 0.4171,-1.0005 4.6925,-11.1495 11.9316,-21.3894 21.662,-30.7565 9.7492,-9.3855 21.1171,-14.4961 34.1035,-15.2782 z m 496.85419,0 c -3.20131,5.82 -9.31242,12.9317 -18.26111,21.1713 -8.67602,7.9482 -21.31712,16.7695 -37.8686,26.4277 0,-0.3633 0,-0.5638 0,-0.5638 0.34533,-0.3632 0.5642,-0.6368 0.5642,-1.0005 4.69209,-11.1495 11.85849,-21.3894 21.60774,-30.7565 9.73086,-9.3855 21.0256,-14.4961 33.95777,-15.2782 z m -366.97009,11.5131 c 1.0728,10.0762 4.8378,18.6069 11.2947,25.8639 6.8933,7.1664 14.9145,11.6406 24.29961,13.496 -3.61931,6.4568 -8.65718,12.0769 -15.13251,16.7698 -6.1115,4.6742 -12.7864,7.0207 -20.0438,7.0207 -7.5297,0 -13.2775,-2.5465 -17.2605,-7.6028 -3.6198,-5.0383 -5.6021,-10.7857 -5.9658,-17.261 0,-0.3453 0,-0.6364 0,-1.0001 0,-0.7822 0.2197,-1.3459 0.5637,-1.7644 0,-0.3632 0,-0.6368 0,-1.0005 0,-0.7091 0,-1.2729 0,-1.637 1.1459,-6.4569 3.6377,-12.6407 7.6028,-18.3885 3.9104,-6.1111 8.894,-10.9494 14.6418,-14.4961 z"
       inkscape:export-filename="/home/daniel/ownCloud/georepublic.png"
       inkscape:export-xdpi="13.736703"
       inkscape:export-ydpi="13.736703" />
  </g>
</svg>
